<svg viewBox="0 0 1440 226" fill="none" xmlns="http://www.w3.org/2000/svg">
<path d="M1075.86 67.9319C1073.52 59.7576 1071.9 52.0886 1070.75 45.1283C1083.09 46.684 1096.2 47.9826 1110.06 48.9296C1122.4 49.7757 1134.3 50.2637 1145.68 50.475C1140.26 56.027 1134.6 62.2439 1128.81 69.2118C1125.82 72.8243 1122.79 76.6106 1119.8 80.5881C1110.18 93.2971 1102.66 105.266 1096.82 115.795C1091.03 106.311 1084.99 94.5882 1079.93 80.5788C1078.38 76.2563 1077.01 72.0313 1075.86 67.9319Z" fill="#3BA27A"/>
<path d="M1205.16 80.0131C1203.12 76.5024 1201.06 73.0318 1199 69.5191L1195.83 64.1276C1194.35 61.5944 1192.86 59.0933 1191.38 56.5602C1202.82 56.1032 1214.89 55.3384 1227.5 54.2054C1240.91 52.9635 1253.72 51.3756 1265.83 49.5962C1262.94 56.8891 1259.49 64.833 1255.24 73.2368L1252.5 78.5346C1251.78 79.829 1251.07 81.1454 1250.36 82.4618C1246.16 90.0755 1241.82 97.0995 1237.55 103.54C1236.13 105.631 1234.77 107.627 1233.37 109.594C1231.34 112.476 1229.33 115.244 1227.39 117.846C1225.1 113.95 1222.79 110.048 1220.51 106.144C1219.54 104.494 1218.57 102.844 1217.61 101.174C1213.47 94.1323 1209.3 87.0547 1205.16 80.0131Z" fill="#446DB7"/>
<path d="M1420.57 10.4456L1487.79 54.9239C1488.02 42.7086 1489.06 28.786 1491.51 13.491C1493.75 -0.563014 1496.86 -13.342 1500.19 -24.6441C1489.86 -19.3814 1478.91 -14.0887 1467.42 -8.88528C1451.12 -1.52053 1435.45 4.88523 1420.57 10.4456ZM999.031 40.2178C1010.02 42.8482 1020.7 45.1423 1031.01 47.1126C1019.66 55.3466 1006.75 65.9615 993.733 79.2961C984.35 88.9 976.612 98.1764 970.265 106.621C967.099 96.3003 964.153 84.3502 962.158 70.8966C959.889 55.5549 959.325 41.5111 959.578 29.3567C971.849 33.1728 985.023 36.8569 999.031 40.2178Z" fill="#F14947"/>
<path d="M1496.85 -10.067C1497.31 -10.2981 1497.49 -10.7837 1497.28 -11.1745L1491.34 -22.6908C1491.14 -23.0794 1490.63 -23.211 1490.17 -22.98C1489.72 -22.7489 1489.54 -22.2633 1489.74 -21.8746L1495.68 -10.3562C1495.83 -10.0914 1496.09 -9.92857 1496.38 -9.92984C1496.55 -9.93148 1496.7 -9.97155 1496.85 -10.067ZM1441.58 20.5252C1442.04 20.3282 1442.26 19.8385 1442.05 19.4477L1434.27 2.93456C1434.1 2.53959 1433.59 2.38671 1433.14 2.60713C1432.69 2.80626 1432.46 3.29385 1432.67 3.68465L1440.44 20.2084C1440.57 20.4689 1440.87 20.6276 1441.18 20.6306C1441.29 20.6288 1441.44 20.5994 1441.58 20.5252ZM1492.32 9.5293C1492.77 9.33233 1493 8.84258 1492.82 8.45827L1481.26 -17.9657C1481.09 -18.3606 1480.57 -18.5263 1480.13 -18.3272C1479.68 -18.1281 1479.45 -17.6405 1479.63 -17.2455L1491.19 9.14645C1491.3 9.43888 1491.6 9.59755 1491.93 9.59213C1492.07 9.59465 1492.21 9.56522 1492.32 9.5293ZM1490.23 30.7405C1490.67 30.5413 1490.89 30.0516 1490.69 29.663L1470.76 -12.7322C1470.59 -13.1143 1470.07 -13.28 1469.62 -13.0489C1469.18 -12.8498 1468.95 -12.3601 1469.16 -11.9714L1489.08 30.4215C1489.2 30.682 1489.5 30.8407 1489.82 30.8437C1489.93 30.8419 1490.07 30.8018 1490.23 30.7405ZM1471.15 42.2622C1471.56 42.0011 1471.73 41.5112 1471.48 41.1587L1444.05 -1.13476C1443.81 -1.49796 1443.28 -1.59758 1442.86 -1.3259C1442.45 -1.06486 1442.29 -0.585578 1442.53 -0.222383L1469.96 42.071C1470.11 42.3039 1470.35 42.4283 1470.63 42.4248C1470.81 42.3913 1471 42.3577 1471.15 42.2622ZM1488.96 54.1886C1489.41 53.9682 1489.6 53.4719 1489.4 53.0833L1457.28 -6.72486C1457.07 -7.11569 1456.55 -7.23661 1456.1 -7.00554C1455.66 -6.78295 1455.46 -6.28886 1455.67 -5.89805L1487.78 53.9101C1487.93 54.1643 1488.21 54.2951 1488.49 54.2917C1488.66 54.3242 1488.8 54.2947 1488.96 54.1886ZM1233.61 106.886C1233.44 106.854 1233.23 106.859 1233.01 106.852C1230.67 106.862 1228.65 108.596 1228.44 110.717C1228.34 111.717 1228.68 112.628 1229.28 113.308L1233.61 106.886ZM1218.78 102.422C1216.86 101.359 1214.25 102.019 1212.89 103.844C1212.8 103.974 1212.68 104.144 1212.59 104.308C1213.62 106.053 1214.64 107.807 1215.68 109.597C1217.2 109.68 1218.8 108.964 1219.74 107.66C1221.13 105.83 1220.69 103.496 1218.78 102.422ZM1249.17 80.288C1248.77 80.4169 1248.3 80.4858 1247.84 80.4888C1245.49 80.4989 1243.83 78.7819 1244.04 76.661C1244.26 74.5529 1246.3 72.8233 1248.62 72.8088C1250.14 72.8026 1251.37 73.544 1252.01 74.6482L1249.17 80.288ZM1226.76 85.8746C1224.45 85.8806 1222.39 87.6187 1222.19 89.7289C1221.96 91.8476 1223.68 93.5627 1225.99 93.546C1228.29 93.54 1230.35 91.8126 1230.56 89.6917C1230.77 87.5836 1229.06 85.8685 1226.76 85.8746ZM1238.03 57.0763C1235.72 57.093 1233.67 58.8204 1233.46 60.9414C1233.24 63.0494 1234.95 64.7645 1237.26 64.7585C1239.56 64.7524 1241.62 63.0144 1241.83 60.9041C1242.05 58.7854 1240.37 57.0662 1238.03 57.0763ZM1214.79 69.0783C1212.48 69.0844 1210.43 70.8118 1210.22 72.9327C1210 75.0408 1211.71 76.7665 1214.02 76.7498C1216.32 76.7438 1218.38 75.0164 1218.6 72.8976C1218.81 70.7874 1217.13 69.0682 1214.79 69.0783ZM1193.3 62.9513C1191.74 62.951 1190.31 63.7443 1189.49 64.8783L1192.85 70.6259C1195.06 70.4895 1196.9 68.8233 1197.11 66.7706C1197.36 64.6562 1195.64 62.9412 1193.3 62.9513ZM956.347 39.5072L982.462 35.5925C982.924 35.5213 983.331 35.1003 983.262 34.6801C983.193 34.2599 982.811 33.9389 982.331 34.0292L956.216 37.9439C955.754 38.0151 955.347 38.436 955.416 38.8563C955.446 39.2466 955.778 39.5354 956.204 39.5366C956.275 39.5049 956.313 39.5007 956.347 39.5072ZM956.868 49.7752L1004.44 41.0322C1004.91 40.9398 1005.27 40.5101 1005.2 40.0899C1005.15 39.6612 1004.72 39.3763 1004.24 39.4794L956.672 48.2224C956.203 48.3148 955.843 48.7445 955.9 49.1625C955.93 49.5528 956.295 49.814 956.687 49.8088C956.735 49.7727 956.796 49.7728 956.868 49.7752ZM957.8 60.313L1028.41 46.0791C1028.88 45.976 1029.24 45.5571 1029.18 45.1262C1029.12 44.7081 1028.68 44.4211 1028.22 44.5157L957.607 58.7496C957.123 58.8505 956.766 59.2695 956.832 59.7004C956.9 60.0865 957.229 60.3071 957.617 60.3125C957.69 60.3489 957.727 60.3107 957.8 60.313ZM959.143 70.2273L1016.68 55.1981C1017.15 55.0609 1017.47 54.6461 1017.38 54.1874C1017.27 53.7606 1016.84 53.5099 1016.33 53.6385L958.796 68.6911C958.324 68.8284 957.99 69.2517 958.094 69.7125C958.161 70.0645 958.487 70.2958 958.879 70.2905C958.962 70.2609 959.061 70.2569 959.143 70.2273ZM960.911 80.0747L1006.27 64.1483C1006.74 63.9898 1006.99 63.5278 1006.86 63.1074C1006.72 62.6848 1006.25 62.4937 1005.77 62.6522L960.428 78.5807C959.949 78.7392 959.689 79.199 959.818 79.6194C959.93 79.946 960.232 80.1388 960.586 80.1377C960.696 80.1359 960.805 80.0999 960.911 80.0747ZM963.027 89.7162L992.79 77.0446C993.241 76.8583 993.463 76.3686 993.326 75.9695C993.159 75.5873 992.641 75.4216 992.197 75.5866L962.434 88.2582C961.98 88.4551 961.758 88.9449 961.898 89.3333C962.009 89.6258 962.31 89.7844 962.626 89.7875C962.775 89.8157 962.881 89.7904 963.027 89.7162ZM964.8 96.7704L981.127 89.6499C981.57 89.4508 981.804 88.9632 981.629 88.5683C981.451 88.184 980.933 88.0183 980.49 88.2174L964.162 95.3378C963.719 95.5369 963.497 96.0267 963.66 96.4195C963.771 96.7119 964.084 96.8728 964.403 96.8652C964.547 96.8357 964.657 96.8339 964.8 96.7704ZM1306.7 41.7174L1360.62 99.4893C1364.83 91.0775 1369 81.8638 1372.84 71.8645C1380.15 52.771 1384.65 35.2278 1387.39 20.0313C1374.73 24.1796 1361.19 28.2634 1346.87 32.0977C1332.87 35.8561 1319.42 39.0298 1306.7 41.7174ZM890.83 2.84811C901.398 7.45695 911.726 11.613 921.708 15.3758C912.535 21.562 902.933 28.4933 893.063 36.2787C877.954 48.1767 864.881 59.9953 853.695 71.0392C851.395 57.5506 849.753 41.8786 849.609 24.3175C849.479 9.7117 850.448 -3.71392 851.938 -15.7628C863.911 -9.49737 876.861 -3.23977 890.83 2.84811Z" fill="#F9B53F"/>
<path d="M1152.23 60.8332C1159.8 60.7895 1167.41 60.6252 1175.17 60.3512C1322.94 54.8574 1442.05 4.16009 1515.95 -37.3948C1516.81 -37.8718 1517.86 -37.675 1518.32 -36.9143C1518.74 -36.1491 1518.41 -35.1393 1517.54 -34.6294C1443.22 7.16062 1323.47 58.1221 1174.92 63.6199C1168.26 63.8804 1161.65 64.0117 1155.16 64.0726C1150.85 64.122 1146.53 64.1254 1142.3 64.0629C1000.28 62.819 893.582 18.5879 827.365 -19.8155C826.6 -20.2734 826.418 -21.2733 827.004 -22.0824C827.59 -22.8565 828.686 -23.1392 829.497 -22.6726C896.77 16.4178 1006.27 61.5356 1152.23 60.8332Z" fill="#F79748"/>
<path d="M401.371 75.1744C404.189 67.1373 406.259 59.5661 407.814 52.6769C395.324 53.5606 382.063 54.145 368.084 54.3383C355.633 54.5132 343.641 54.3541 332.19 53.9469C337.314 59.7861 342.649 66.3028 348.072 73.5765C350.869 77.3468 353.706 81.2934 356.485 85.4284C365.426 98.6439 372.296 111.007 377.566 121.839C383.929 112.682 390.669 101.302 396.56 87.5847C398.366 83.3518 399.982 79.2063 401.371 75.1744Z" fill="#3BA27A"/>
<path d="M270.711 80.2173C272.967 76.8221 275.235 73.4676 277.503 70.071L280.998 64.8584C282.634 62.4089 284.267 59.9915 285.903 57.5421C274.435 56.4645 262.342 55.0449 249.726 53.2281C236.322 51.2595 223.542 48.9781 211.465 46.5428C213.952 53.9836 216.972 62.1053 220.764 70.7295L223.21 76.1692C223.856 77.5009 224.497 78.8544 225.138 80.2078C228.928 88.0404 232.888 95.2913 236.811 101.956C238.115 104.121 239.368 106.188 240.66 108.228C242.537 111.218 244.406 114.092 246.203 116.796C248.724 113.029 251.277 109.257 253.783 105.481C254.854 103.886 255.925 102.291 256.99 100.676C261.555 93.8678 266.145 87.0251 270.711 80.2173Z" fill="#446DB7"/>
<path d="M58.1598 -0.964224L-11.9517 39.8074C-11.4796 27.595 -11.7279 13.6334 -13.32 -1.77583C-14.7715 -15.9341 -17.1666 -28.8661 -19.8656 -40.3349C-9.77921 -34.5174 0.923091 -28.6366 12.1715 -22.8158C28.1433 -14.5744 43.5188 -7.32599 58.1598 -0.964224ZM480.183 51.6681C468.987 53.6983 458.122 55.4095 447.641 56.817C458.582 65.6575 470.955 76.9605 483.274 90.9854C492.157 101.087 499.405 110.772 505.302 119.551C509.074 109.415 512.719 97.6399 515.493 84.3114C518.651 69.1121 520.022 55.1165 520.462 42.9635C507.909 46.1083 494.456 49.0722 480.183 51.6681Z" fill="#F14947"/>
<path d="M-17.3428 -25.5947C-17.7856 -25.8501 -17.9429 -26.3451 -17.7069 -26.7239L-11.0844 -37.9035C-10.8601 -38.2807 -10.3328 -38.3841 -9.88998 -38.1286C-9.4472 -37.8732 -9.28994 -37.3782 -9.51424 -37.001L-16.1484 -25.8198C-16.3086 -25.5632 -16.5825 -25.4148 -16.8767 -25.432C-17.0486 -25.4429 -17.1942 -25.491 -17.3428 -25.5947ZM36.4653 7.96161C36.0196 7.74021 35.8244 7.23901 36.0605 6.86023L44.8186 -9.21004C45.0167 -9.59502 45.5382 -9.72001 45.9781 -9.47541C46.4122 -9.25247 46.619 -8.75281 46.383 -8.37403L37.6277 7.70707C37.4908 7.96063 37.179 8.10275 36.8615 8.08865C36.7508 8.08086 36.608 8.04366 36.4653 7.96161ZM-13.9064 -5.77652C-14.3522 -5.99792 -14.5473 -6.49912 -14.3463 -6.87328L-1.2206 -32.6366C-1.02243 -33.0216 -0.49222 -33.159 -0.0581839 -32.936C0.375852 -32.7131 0.582658 -32.2134 0.384554 -31.8284L-12.7499 -6.09757C-12.8781 -5.81153 -13.1898 -5.66941 -13.5219 -5.69279C-13.6559 -5.6975 -13.7987 -5.7347 -13.9064 -5.77652ZM-13.0163 15.5218C-13.4504 15.2989 -13.6455 14.7977 -13.4212 14.4205L9.03948 -26.839C9.22885 -27.2117 9.75906 -27.349 10.2018 -27.0936C10.6359 -26.8706 10.831 -26.3694 10.6067 -25.9922L-11.8423 15.2658C-11.9792 15.5193 -12.2909 15.6614 -12.6085 15.6473C-12.7192 15.6395 -12.8648 15.5915 -13.0163 15.5218ZM5.50228 28.0655C5.10025 27.7822 4.96628 27.2842 5.23728 26.9456L35.2198 -13.8056C35.4879 -14.1549 36.0239 -14.2258 36.4288 -13.9317C36.8308 -13.6485 36.9619 -13.1612 36.6939 -12.8118L6.7113 27.9393C6.54233 28.1635 6.2947 28.2747 6.01211 28.256C5.83146 28.2126 5.65087 28.1692 5.50228 28.0655ZM-13.0818 39.0096C-13.5218 38.765 -13.6819 38.2592 -13.4576 37.882L22.2418 -20.1073C22.4778 -20.486 23.008 -20.5785 23.4508 -20.3231C23.879 -20.077 24.0509 -19.5727 23.8149 -19.1939L-11.8846 38.7953C-12.0477 39.0411 -12.3303 39.157 -12.6128 39.1382C-12.7877 39.1614 -12.9304 39.1242 -13.0818 39.0096ZM240.577 105.511C240.752 105.488 240.962 105.505 241.181 105.51C243.534 105.647 245.466 107.489 245.556 109.619C245.597 110.622 245.209 111.515 244.562 112.161L240.577 105.511ZM255.741 101.859C257.728 100.901 260.321 101.702 261.579 103.599C261.664 103.734 261.771 103.91 261.853 104.079C260.714 105.765 259.589 107.461 258.45 109.193C256.918 109.193 255.35 108.391 254.479 107.038C253.183 105.135 253.757 102.828 255.741 101.859ZM226.459 78.1013C226.849 78.2516 227.321 78.3462 227.787 78.3743C230.141 78.5117 231.912 76.8872 231.822 74.7575C231.723 72.6402 229.769 70.8018 227.438 70.6613C225.906 70.5723 224.627 71.2459 223.925 72.3142L226.459 78.1013ZM248.669 84.8984C250.985 85.0296 252.954 86.8773 253.041 88.9961C253.143 91.1243 251.322 92.7441 249.003 92.602C246.687 92.4709 244.721 90.634 244.631 88.5043C244.532 86.387 246.353 84.7672 248.669 84.8984ZM238.981 55.5236C241.3 55.6656 243.266 57.5025 243.357 59.6322C243.456 61.7495 241.635 63.3693 239.319 63.2381C237.003 63.1069 235.033 61.2592 234.946 59.1404C234.844 57.0122 236.627 55.3862 238.981 55.5236ZM261.66 68.7732C263.976 68.9044 265.942 70.7413 266.032 72.871C266.131 74.9883 264.313 76.6189 261.994 76.4769C259.678 76.3457 257.712 74.5088 257.61 72.3807C257.523 70.2618 259.306 68.6358 261.66 68.7732ZM283.606 63.8208C285.173 63.9052 286.565 64.7751 287.329 65.9525L283.623 71.5104C281.406 71.254 279.652 69.4899 279.556 67.4283C279.431 65.3032 281.252 63.6834 283.606 63.8208ZM523.129 53.2768L497.102 47.9484C496.642 47.8523 496.258 47.4097 496.351 46.9938C496.444 46.5778 496.846 46.278 497.324 46.3942L523.35 51.7226C523.811 51.8187 524.195 52.2613 524.102 52.6772C524.049 53.0654 523.7 53.3359 523.272 53.314C523.202 53.2784 523.164 53.2722 523.129 53.2768ZM522.018 63.5037L474.699 52.1876C474.233 52.0698 473.895 51.6211 473.989 51.2051C474.067 50.7799 474.516 50.5187 474.985 50.6474L522.304 61.9634C522.77 62.0812 523.108 62.5299 523.026 62.9443C522.974 63.3325 522.592 63.5736 522.199 63.5471C522.152 63.5084 522.091 63.5052 522.018 63.5037ZM520.479 73.9777L450.316 55.9262C449.846 55.7975 449.511 55.3597 449.602 54.9329C449.683 54.5184 450.144 54.2558 450.598 54.3751L520.762 72.4267C521.243 72.5538 521.578 72.9916 521.487 73.4185C521.397 73.8004 521.053 74.0028 520.663 73.9871C520.587 74.0196 520.552 73.9793 520.479 73.9777ZM518.562 83.8067L461.589 65.6711C461.123 65.5085 460.826 65.0768 460.945 64.6238C461.074 64.2032 461.519 63.9761 462.032 64.1325L518.999 82.2913C519.465 82.454 519.777 82.8949 519.646 83.3495C519.558 83.6975 519.217 83.9107 518.824 83.8842C518.743 83.8501 518.644 83.8408 518.562 83.8067ZM516.222 93.5458L471.543 75.1757C471.071 74.9914 470.847 74.5165 471.001 74.1036C471.167 73.6892 471.654 73.524 472.126 73.7083L516.793 92.0799C517.265 92.2642 517.501 92.7376 517.347 93.1505C517.215 93.4705 516.901 93.6467 516.545 93.6264C516.435 93.6186 516.327 93.5767 516.222 93.5458ZM513.544 103.06L484.352 88.7879C483.909 88.5774 483.714 88.0762 483.874 87.685C484.063 87.3123 484.594 87.175 485.03 87.3639L514.223 101.636C514.669 101.858 514.864 102.359 514.701 102.739C514.573 103.025 514.261 103.167 513.943 103.153C513.792 103.173 513.687 103.142 513.544 103.06ZM511.359 110.009L495.354 102.011C494.92 101.788 494.713 101.288 494.911 100.903C495.112 100.529 495.643 100.392 496.077 100.615L512.081 108.613C512.515 108.836 512.711 109.337 512.524 109.721C512.396 110.007 512.073 110.151 511.752 110.126C511.609 110.088 511.499 110.081 511.359 110.009ZM170.836 36.4539L113.334 91.2251C109.577 82.5947 105.918 73.1663 102.633 62.971C96.3707 43.5039 92.8468 25.7381 90.9688 10.412C103.455 15.2427 116.829 20.0568 131.004 24.6641C144.865 29.1785 158.199 33.0785 170.836 36.4539ZM591.082 20.2222C580.195 24.2512 569.576 27.8411 559.327 31.057C568.195 37.7338 577.449 45.1779 586.926 53.4898C601.433 66.1936 613.898 78.7076 624.51 90.3452C627.593 76.9985 630.14 61.4351 631.289 43.9038C632.254 29.3232 632.048 15.8617 631.239 3.74699C618.846 9.35423 605.471 14.9006 591.082 20.2222Z" fill="#F9B53F"/>
<path d="M325.013 63.9364C317.408 63.4817 309.77 62.9044 301.979 62.2089C153.756 48.6953 36.9302 -8.40842 -34.9735 -53.9253C-35.8177 -54.4488 -36.8814 -54.3092 -37.3841 -53.5742C-37.8486 -52.8328 -37.5822 -51.8067 -36.7289 -51.2497C35.5838 -5.47511 153.035 51.9271 302.045 65.4872C308.727 66.1093 315.361 66.5992 321.877 67.0124C326.215 67.2963 330.553 67.5341 334.811 67.7016C477.636 74.1733 587.416 35.7929 656.171 1.03418C656.966 0.61839 657.206 -0.370419 656.664 -1.21031C656.118 -2.01526 655.033 -2.35715 654.191 -1.93523C584.335 33.4524 471.692 72.5663 325.013 63.9364Z" fill="#F79748"/>
</svg>
