<svg viewBox="0 0 1440 226" fill="none" xmlns="http://www.w3.org/2000/svg"><path d="M1075.86 67.932a202.958 202.958 0 0 1-5.11-22.804 690.82 690.82 0 0 0 39.31 3.802c12.34.846 24.24 1.334 35.62 1.545a314.763 314.763 0 0 0-16.87 18.737c-2.99 3.612-6.02 7.399-9.01 11.376-9.62 12.71-17.14 24.678-22.98 35.207a193.914 193.914 0 0 1-16.89-35.216c-1.55-4.323-2.92-8.548-4.07-12.647Z" fill="#3BA27A"/><path d="M1205.16 80.013c-2.04-3.51-4.1-6.981-6.16-10.494l-3.17-5.391c-1.48-2.534-2.97-5.035-4.45-7.568a729.423 729.423 0 0 0 36.12-2.355 720.925 720.925 0 0 0 38.33-4.609c-2.89 7.293-6.34 15.237-10.59 23.64l-2.74 5.299c-.72 1.294-1.43 2.61-2.14 3.927-4.2 7.614-8.54 14.638-12.81 21.078a334.085 334.085 0 0 1-4.18 6.054c-2.03 2.882-4.04 5.65-5.98 8.252-2.29-3.896-4.6-7.798-6.88-11.702-.97-1.65-1.94-3.3-2.9-4.97-4.14-7.042-8.31-14.12-12.45-21.16Z" fill="#446DB7"/><path d="m1420.57 10.446 67.22 44.478c.23-12.215 1.27-26.138 3.72-41.433 2.24-14.054 5.35-26.833 8.68-38.135a792.235 792.235 0 0 1-32.77 15.759 759.697 759.697 0 0 1-46.85 19.33ZM999.031 40.218a710.24 710.24 0 0 0 31.979 6.895 290.81 290.81 0 0 0-37.277 32.183 278.704 278.704 0 0 0-23.468 27.325c-3.166-10.32-6.112-22.27-8.107-35.724-2.269-15.342-2.833-29.386-2.58-41.54a619.918 619.918 0 0 0 39.453 10.86Z" fill="#F14947"/><path d="M1496.85-10.067c.46-.231.64-.717.43-1.107l-5.94-11.517c-.2-.388-.71-.52-1.17-.289-.45.231-.63.717-.43 1.105l5.94 11.519c.15.265.41.427.7.426a.853.853 0 0 0 .47-.137Zm-55.27 30.592c.46-.197.68-.686.47-1.077l-7.78-16.513c-.17-.395-.68-.548-1.13-.328-.45.2-.68.687-.47 1.078l7.77 16.523c.13.26.43.42.74.423a.92.92 0 0 0 .4-.106Zm50.74-10.996c.45-.197.68-.686.5-1.07l-11.56-26.425c-.17-.395-.69-.56-1.13-.361-.45.199-.68.687-.5 1.082l11.56 26.391c.11.293.41.452.74.446.14.003.28-.027.39-.063Zm-2.09 21.212c.44-.2.66-.69.46-1.078l-19.93-42.395c-.17-.382-.69-.548-1.14-.317-.44.2-.67.689-.46 1.078l19.92 42.392c.12.261.42.42.74.423.11-.002.25-.042.41-.104Zm-19.08 11.521c.41-.26.58-.75.33-1.103l-27.43-42.294c-.24-.363-.77-.463-1.19-.19-.41.26-.57.74-.33 1.103l27.43 42.293a.76.76 0 0 0 .67.354c.18-.034.37-.067.52-.163Zm17.81 11.927c.45-.22.64-.717.44-1.106l-32.12-59.808c-.21-.39-.73-.512-1.18-.28-.44.222-.64.716-.43 1.107l32.11 59.808c.15.254.43.385.71.382.17.032.31.003.47-.103Zm-255.35 52.697c-.17-.032-.38-.027-.6-.034-2.34.01-4.36 1.744-4.57 3.865-.1 1 .24 1.911.84 2.591l4.33-6.422Zm-14.83-4.464c-1.92-1.063-4.53-.403-5.89 1.422-.09.13-.21.3-.3.464 1.03 1.745 2.05 3.499 3.09 5.289 1.52.083 3.12-.633 4.06-1.937 1.39-1.83.95-4.164-.96-5.238Zm30.39-22.134c-.4.129-.87.198-1.33.2-2.35.01-4.01-1.706-3.8-3.827.22-2.108 2.26-3.838 4.58-3.852 1.52-.006 2.75.735 3.39 1.84l-2.84 5.639Zm-22.41 5.587c-2.31.006-4.37 1.744-4.57 3.854-.23 2.119 1.49 3.834 3.8 3.817 2.3-.006 4.36-1.733 4.57-3.854.21-2.108-1.5-3.823-3.8-3.817Zm11.27-28.799c-2.31.017-4.36 1.744-4.57 3.865-.22 2.108 1.49 3.823 3.8 3.817 2.3-.006 4.36-1.744 4.57-3.854.22-2.119-1.46-3.838-3.8-3.828Zm-23.24 12.002c-2.31.006-4.36 1.734-4.57 3.855-.22 2.108 1.49 3.833 3.8 3.817 2.3-.006 4.36-1.734 4.58-3.852.21-2.11-1.47-3.83-3.81-3.82Zm-21.49-6.127c-1.56 0-2.99.793-3.81 1.927l3.36 5.748c2.21-.136 4.05-1.803 4.26-3.855.25-2.115-1.47-3.83-3.81-3.82ZM956.347 39.507l26.115-3.914c.462-.072.869-.493.8-.913a.78.78 0 0 0-.931-.65l-26.115 3.914c-.462.071-.869.492-.8.912.03.39.362.68.788.68.071-.031.109-.035.143-.029Zm.521 10.268 47.572-8.743c.47-.092.83-.522.76-.942-.05-.429-.48-.714-.96-.61l-47.568 8.742c-.469.093-.829.523-.772.94.03.39.395.652.787.647.048-.036.109-.036.181-.034Zm.932 10.538 70.61-14.234c.47-.103.83-.522.77-.953-.06-.418-.5-.705-.96-.61L957.607 58.75c-.484.1-.841.52-.775.95.068.386.397.607.785.612.073.037.11-.001.183.001Zm1.343 9.914 57.537-15.029c.47-.137.79-.552.7-1.01-.11-.427-.54-.678-1.05-.55l-57.534 15.053c-.472.137-.806.56-.702 1.022.067.352.393.583.785.578.083-.03.182-.034.264-.064Zm1.768 9.848 45.359-15.927c.47-.158.72-.62.59-1.04-.14-.423-.61-.614-1.09-.456l-45.342 15.929c-.479.158-.739.618-.61 1.038.112.327.414.52.768.519.11-.002.219-.038.325-.063Zm2.116 9.641 29.763-12.671c.451-.187.673-.676.536-1.076-.167-.382-.685-.547-1.129-.382l-29.763 12.671c-.454.197-.676.687-.536 1.075.111.293.412.451.728.454.149.029.255.003.401-.07Zm1.773 7.054 16.327-7.12c.443-.2.677-.687.502-1.082-.178-.384-.696-.55-1.139-.35l-16.328 7.12c-.443.199-.665.689-.502 1.082.111.292.424.453.743.445.144-.03.254-.031.397-.095Zm341.9-55.053 53.92 57.772c4.21-8.412 8.38-17.625 12.22-27.624 7.31-19.094 11.81-36.637 14.55-51.834a768.692 768.692 0 0 1-80.69 21.686ZM890.83 2.848a656.51 656.51 0 0 0 30.878 12.528 475.474 475.474 0 0 0-28.645 20.903 469.146 469.146 0 0 0-39.368 34.76c-2.3-13.488-3.942-29.16-4.086-46.722-.13-14.605.839-28.03 2.329-40.08A606.117 606.117 0 0 0 890.83 2.848Z" fill="#F9B53F"/><path d="M1152.23 60.833c7.57-.044 15.18-.208 22.94-.482 147.77-5.494 266.88-56.19 340.78-97.746.86-.477 1.91-.28 2.37.48.42.766.09 1.776-.78 2.286-74.32 41.79-194.07 92.751-342.62 98.249-6.66.26-13.27.392-19.76.453-4.31.049-8.63.052-12.86-.01-142.02-1.244-248.718-45.475-314.935-83.879-.765-.457-.947-1.457-.361-2.266.586-.774 1.682-1.057 2.493-.59 67.273 39.09 176.773 84.208 322.733 83.505Z" fill="#F79748"/><path d="M401.371 75.174a202.98 202.98 0 0 0 6.443-22.497 700.504 700.504 0 0 1-39.73 1.661 724.138 724.138 0 0 1-35.894-.391 316.919 316.919 0 0 1 15.882 19.63c2.797 3.77 5.634 7.716 8.413 11.851 8.941 13.216 15.811 25.579 21.081 36.411a194.353 194.353 0 0 0 18.994-34.254c1.806-4.233 3.422-8.379 4.811-12.41Z" fill="#3BA27A"/><path d="M270.711 80.217c2.256-3.395 4.524-6.75 6.792-10.146l3.495-5.213c1.636-2.45 3.269-4.867 4.905-7.316a739.46 739.46 0 0 1-36.177-4.314 730.48 730.48 0 0 1-38.261-6.685c2.487 7.44 5.507 15.562 9.299 24.187l2.446 5.44c.646 1.33 1.287 2.684 1.928 4.038 3.79 7.832 7.75 15.083 11.673 21.748a327.257 327.257 0 0 0 3.849 6.272 393.489 393.489 0 0 0 5.543 8.568c2.521-3.767 5.074-7.539 7.58-11.315a691.237 691.237 0 0 0 3.207-4.805l13.721-20.459Z" fill="#446DB7"/><path d="m58.16-.964-70.112 40.771c.472-12.212.224-26.174-1.368-41.583-1.451-14.158-3.847-27.09-6.546-38.559a801.068 801.068 0 0 0 32.038 17.52A766.58 766.58 0 0 0 58.16-.966Zm422.023 52.632a718.758 718.758 0 0 1-32.542 5.149 290.477 290.477 0 0 1 35.633 34.168 277.888 277.888 0 0 1 22.028 28.566c3.772-10.136 7.417-21.911 10.191-35.24 3.158-15.199 4.529-29.195 4.969-41.348a628.726 628.726 0 0 1-40.279 8.705Z" fill="#F14947"/><path d="M-17.343-25.595c-.443-.255-.6-.75-.364-1.129l6.623-11.18c.224-.377.751-.48 1.194-.225.443.256.6.75.376 1.128l-6.634 11.181a.802.802 0 0 1-.729.388.87.87 0 0 1-.466-.163ZM36.465 7.962c-.445-.222-.64-.723-.405-1.102L44.82-9.21c.198-.385.72-.51 1.16-.265.433.223.64.722.404 1.101L37.628 7.707c-.137.254-.449.396-.767.382a.95.95 0 0 1-.396-.127ZM-13.906-5.777c-.446-.22-.641-.722-.44-1.096l13.125-25.764c.199-.385.729-.522 1.163-.299.434.223.64.723.443 1.108L-12.75-6.098c-.128.286-.44.429-.772.405a1.24 1.24 0 0 1-.384-.084Zm.89 21.299c-.434-.223-.63-.724-.405-1.101l22.46-41.26c.19-.373.72-.51 1.163-.255.434.223.629.725.405 1.102l-22.45 41.258c-.136.253-.448.395-.765.381a1.283 1.283 0 0 1-.408-.125ZM5.502 28.065c-.402-.283-.536-.78-.265-1.12l29.983-40.75c.268-.35.804-.42 1.209-.127.402.284.533.77.265 1.12L6.71 27.94a.783.783 0 0 1-.699.317c-.18-.043-.361-.087-.51-.19ZM-13.082 39.01c-.44-.245-.6-.75-.376-1.128l35.7-57.99c.236-.378.766-.47 1.209-.215.428.246.6.75.364 1.13l-35.7 57.988a.798.798 0 0 1-.728.343.593.593 0 0 1-.469-.128Zm253.659 66.501c.175-.023.385-.006.604-.001 2.353.137 4.285 1.979 4.375 4.109a3.365 3.365 0 0 1-.994 2.542l-3.985-6.65Zm15.164-3.652c1.987-.958 4.58-.157 5.838 1.74.085.135.192.311.274.48a493.563 493.563 0 0 0-3.403 5.114c-1.532 0-3.1-.802-3.971-2.155-1.296-1.903-.722-4.21 1.262-5.179Zm-29.282-23.758c.39.15.862.245 1.328.273 2.354.138 4.125-1.487 4.035-3.617-.099-2.117-2.053-3.955-4.384-4.096-1.532-.089-2.811.585-3.513 1.653l2.534 5.787Zm22.21 6.797c2.316.132 4.285 1.98 4.372 4.098.102 2.128-1.719 3.748-4.038 3.606-2.316-.131-4.282-1.968-4.372-4.098-.099-2.117 1.722-3.737 4.038-3.606Zm-9.688-29.374c2.319.142 4.285 1.978 4.376 4.108.099 2.117-1.722 3.737-4.038 3.606-2.316-.131-4.286-1.979-4.373-4.098-.102-2.128 1.681-3.754 4.035-3.616Zm22.679 13.25c2.316.13 4.282 1.967 4.372 4.097.099 2.117-1.719 3.748-4.038 3.606-2.316-.131-4.282-1.968-4.384-4.096-.087-2.12 1.696-3.745 4.05-3.608Zm21.946-4.953c1.567.084 2.959.954 3.723 2.132l-3.706 5.557c-2.217-.256-3.971-2.02-4.067-4.082-.125-2.125 1.696-3.745 4.05-3.607Zm239.523-10.544-26.027-5.329c-.46-.096-.844-.538-.751-.954a.787.787 0 0 1 .973-.6l26.026 5.329c.461.096.845.538.752.954-.053.388-.402.659-.83.637-.07-.036-.108-.042-.143-.037Zm-1.111 10.227-47.319-11.316c-.466-.118-.804-.567-.71-.983.078-.425.527-.686.996-.558l47.319 11.316c.466.118.804.567.722.981-.052.389-.434.63-.827.603-.047-.039-.108-.042-.181-.043Zm-1.539 10.474-70.163-18.052c-.47-.129-.805-.566-.714-.993.081-.415.542-.677.996-.558l70.164 18.052c.481.127.816.565.725.991-.09.382-.434.585-.824.57-.076.032-.111-.009-.184-.01Zm-1.917 9.829L461.589 65.67c-.466-.163-.763-.594-.644-1.047.129-.42.574-.648 1.087-.492l56.967 18.16c.466.162.778.603.647 1.058-.088.348-.429.56-.822.534-.081-.034-.18-.043-.262-.077Zm-2.34 9.739-44.679-18.37c-.472-.185-.696-.66-.542-1.072.166-.415.653-.58 1.125-.396l44.667 18.372c.472.184.708.658.554 1.07-.132.32-.446.497-.802.476-.11-.007-.218-.05-.323-.08Zm-2.678 9.514-29.192-14.272c-.443-.21-.638-.712-.478-1.103.189-.373.72-.51 1.156-.321l29.193 14.272c.446.222.641.723.478 1.103-.128.286-.44.428-.758.414-.151.02-.256-.011-.399-.093Zm-2.185 6.949-16.005-7.998c-.434-.223-.641-.723-.443-1.108.201-.374.732-.511 1.166-.288l16.004 7.998c.434.223.63.724.443 1.108-.128.286-.451.43-.772.405-.143-.038-.253-.045-.393-.117ZM170.836 36.454l-57.502 54.771c-3.757-8.63-7.416-18.059-10.701-28.254-6.262-19.467-9.786-37.233-11.664-52.559a774.5 774.5 0 0 0 79.867 26.042Zm420.246-16.232a665.778 665.778 0 0 1-31.755 10.835 476.278 476.278 0 0 1 27.599 22.433 469.023 469.023 0 0 1 37.584 36.855c3.083-13.346 5.63-28.91 6.779-46.441.965-14.58.759-28.042-.05-40.157a614.197 614.197 0 0 1-40.157 16.475Z" fill="#F9B53F"/><path d="M325.013 63.936a786.206 786.206 0 0 1-23.034-1.727C153.756 48.695 36.93-8.408-34.973-53.925c-.845-.524-1.908-.384-2.411.35-.465.742-.198 1.768.655 2.325C35.584-5.475 153.035 51.927 302.045 65.487a674.38 674.38 0 0 0 19.832 1.525c4.338.284 8.676.522 12.934.69 142.825 6.471 252.605-31.91 321.36-66.668.795-.416 1.035-1.404.493-2.244-.546-.805-1.631-1.147-2.473-.725-69.856 35.387-182.499 74.501-329.178 65.871Z" fill="#F79748"/></svg>